#!OML:ASF I:\Actors\actors\Patient Classification 1\Patient 1\Session 1\Subject1.ASF
:FULLY-SPECIFIED
:DEGREES
647
root -0.354449 17.4425 8.83438 8.34135 6.54619 -9.14097
lowerback -1.50522 1.53567 5.67243
upperback -9.85598 2.44152 1.48797
thorax -9.43991 0.824731 -1.74006
lowerneck -5.88009 -10.9166 -8.60915
upperneck 5.93027 -15.2241 14.6074
head 4.54281 -7.14641 4.8019
rclavicle -2.3059e-014 -3.97569e-016
rhumerus -44.6591 -5.95195 -83.1861
rradius 70.5465
rwrist 70.1658
rhand -27.1888 -238.951
rfingers 7.12502
rthumb -0.602462 -208.972
lclavicle -2.3059e-014 -3.97569e-016
lhumerus -43.8074 13.6235 84.7922
lradius 75.6004
lwrist -7.76082
lhand -23.6444 -14.7977
lfingers 7.12502
lthumb 2.82083 15.1634
rfemur -3.75653 19.1454 26.5075
rtibia 7.18114
rfoot -16.5601 -22.2913
rtoes 0.17914
lfemur 1.80531 -39.8416 -7.30431
ltibia -2.66284
lfoot -15.5714 47.389
ltoes 2.12202
648
root -0.362365 17.4535 8.83746 7.97102 6.84258 -9.0476
lowerback -1.22772 1.34167 5.49454
upperback -9.76349 2.19307 1.53688
thorax -9.52306 0.717953 -1.58121
lowerneck -4.50479 -10.8521 -8.62901
upperneck 5.01482 -15.0922 14.5501
head 4.01786 -7.17506 4.89435
rclavicle 1.25234e-014 3.97569e-016
rhumerus -43.1667 -5.53019 -82.6042
rradius 74.2321
rwrist 74.6941
rhand -35.1866 -252.549
rfingers 7.12502
rthumb -8.32484 -222.733
lclavicle 1.25234e-014 3.97569e-016
lhumerus -42.7952 12.4305 86.0836
lradius 80.5484
lwrist -6.71637
lhand -26.4268 -17.3957
lfingers 7.12502
lthumb 0.133535 12.584
rfemur -3.06549 19.395 26.6881
rtibia 6.84436
rfoot -16.5955 -22.8477
rtoes 0.481122
lfemur 2.21429 -39.84 -7.58532
ltibia -2.71803
lfoot -15.0533 47.0851
ltoes 1.45239
649
root -0.36708 17.4592 8.83442 7.8666 6.84736 -9.0289
lowerback -1.11284 1.25722 5.43456
upperback -9.78351 2.08966 1.58161
thorax -9.62385 0.671092 -1.49659
lowerneck -3.21142 -10.7923 -8.79091
upperneck 4.44918 -15.0072 14.5411
head 3.63411 -7.21067 5.0086
rclavicle -5.56597e-015 -5.60573e-014
rhumerus -41.1856 -5.24075 -81.9138
rradius 78.0936
rwrist 79.1726
rhand -41.5698 -88.558
rfingers 7.12502
rthumb -14.4807 -241.967
lclavicle -5.56597e-015 -5.60573e-014
lhumerus -41.4406 11.2585 87.2929
lradius 85.8358
lwrist -7.03758
lhand -28.3865 -19.091
lfingers 7.12502
lthumb -1.75916 10.8815
rfemur -2.87673 19.537 26.7545
rtibia 6.73782
rfoot -16.539 -23.0048
rtoes 0.366889
lfemur 2.3809 -39.896 -7.67816
ltibia -2.76091
lfoot -14.9855 47.1194
ltoes 1.41702
650
root -0.369778 17.4618 8.82692 7.9574 6.74469 -9.03942
lowerback -1.11329 1.18784 5.41869
upperback -9.87376 2.00272 1.6196
thorax -9.73332 0.627458 -1.44173
lowerneck -2.01009 -10.6875 -9.10512
upperneck 4.16413 -14.9001 14.6581
head 3.36916 -7.22101 5.17534
rclavicle -1.44119e-014 5.56597e-015
rhumerus -38.7258 -4.80986 -81.2811
rradius 82.0917
rwrist 83.8448
rhand -39.9852 -63.0623
rfingers 7.12502
rthumb -12.9535 -267.36
lclavicle -1.44119e-014 5.56597e-015
lhumerus -39.5169 9.94689 88.4283
lradius 91.2047
lwrist -7.85932
lhand -30.12 -20.9957
lfingers 7.12502
lthumb -3.43337 8.95641
rfemur -3.01783 19.5693 26.7139
rtibia 6.74323
rfoot -16.4464 -22.9157
rtoes 0.238831
lfemur 2.29647 -39.9632 -7.60629
ltibia -2.78629
lfoot -15.1642 47.2935
ltoes 1.56701
651
root -0.369344 17.4607 8.81546 8.19061 6.44989 -9.08171
lowerback -1.21288 1.19966 5.46231
upperback -10.045 2.02434 1.65446
thorax -9.86775 0.630558 -1.42836
lowerneck -0.784469 -10.5941 -9.46902
upperneck 4.13539 -14.8417 14.703
head 3.17973 -7.25173 5.3205
rclavicle 5.46658e-015 -5.96354e-015
rhumerus -35.8476 -4.5832 -80.4428
rradius 86.2177
rwrist 87.6813
rhand -41.096 -54.8421
rfingers 7.12502
rthumb -14.0242 -444.349
lclavicle 5.46658e-015 -5.96354e-015
lhumerus -37.1102 8.46828 89.3373
lradius 96.3613
lwrist -10.042
lhand -31.0661 -22.7344
lfingers 7.12502
lthumb -4.34701 7.20103
rfemur -3.44264 19.5268 26.5857
rtibia 6.87711
rfoot -16.303 -22.5608
rtoes 0.0451004
lfemur 2.18343 -40.2687 -7.53679
ltibia -2.83864
lfoot -15.7564 47.866
ltoes 2.30202
652
root -0.362869 17.4539 8.79666 8.61675 5.84233 -9.17779
lowerback -1.38805 1.34173 5.64591
upperback -10.3157 2.22603 1.67754
thorax -10.0566 0.706602 -1.51568
lowerneck 0.553962 -10.6053 -9.74242
upperneck 4.02094 -14.9137 14.4713
head 2.93425 -7.3568 5.36847
rclavicle 3.8763e-015 8.34896e-015
rhumerus -32.5904 -4.54622 -79.5364
rradius 90.2641
rwrist 91.1529
rhand -39.3804 -46.6039
rfingers 7.12502
rthumb -12.3704 -436.218
lclavicle 3.8763e-015 8.34896e-015
lhumerus -34.3057 6.74139 90.0412
lradius 101.023
lwrist -12.9504
lhand -32.4581 -25.5142
lfingers 7.12502
lthumb -5.69108 4.38935
rfemur -4.2964 19.3116 26.3276
rtibia 7.22728
rfoot -16.0886 -21.7426
rtoes -0.421006
lfemur 1.9793 -40.7426 -7.43391
ltibia -2.87825
lfoot -16.8709 48.8631
ltoes 3.98469
653
root -0.370186 17.4671 8.80839 8.29263 6.28426 -9.05081
lowerback -1.36152 1.06424 5.44982
upperback -10.3032 1.84775 1.71466
thorax -10.0872 0.539212 -1.34201
lowerneck 2.32337 -10.7997 -9.71876
upperneck 3.02921 -15.1467 13.7676
head 2.32212 -7.5743 5.27231
rclavicle 5.56597e-015 2.22639e-014
rhumerus -28.9566 -4.33928 -78.8805
rradius 94.2021
rwrist 93.4129
rhand -35.7884 -41.0609
rfingers 7.12502
rthumb -8.90564 -430.853
lclavicle 5.56597e-015 2.22639e-014
lhumerus -31.0984 4.88219 90.4599
lradius 105.348
lwrist -16.3583
lhand -32.2901 -26.9007
lfingers 7.12502
lthumb -5.5288 3.00715
rfemur -3.50195 19.6297 26.4876
rtibia 6.71522
rfoot -16.2114 -22.4874
rtoes 0.226905
lfemur 2.44016 -41.0506 -7.79762
ltibia -3.01794
lfoot -16.6084 48.769
ltoes 3.98241
654
root -0.374199 17.4745 8.81157 8.14979 6.31361 -9.06267
lowerback -1.40795 0.948152 5.40529
upperback -10.332 1.69007 1.75603
thorax -10.1042 0.466975 -1.26117
lowerneck 3.56308 -10.6987 -9.88547
upperneck 3.08034 -15.1148 13.9244
head 2.15493 -7.6074 5.42314
rclavicle 1.63997e-014 -2.42517e-014
rhumerus -25.1136 -3.6425 -78.5014
rradius 98.2808
rwrist 93.1456
rhand -32.6209 -36.6237
rfingers 7.12502
rthumb -5.84817 -426.523
lclavicle 1.63997e-014 -2.42517e-014
lhumerus -27.6046 2.79372 90.687
lradius 109.398
lwrist -19.2628
lhand -35.8269 -29.7881
lfingers 7.12502
lthumb -8.94276 0.00241908
rfemur -3.19163 19.8154 26.6179
rtibia 6.51907
rfoot -16.2333 -22.7038
rtoes 0.575035
lfemur 2.76247 -41.2406 -7.96294
ltibia -3.12237
lfoot -16.7235 48.9109
ltoes 4.12511
655
root -0.375307 17.478 8.80982 8.08513 6.20045 -9.13043
lowerback -1.41377 0.897808 5.44319
upperback -10.3846 1.62902 1.7991
thorax -10.1659 0.433635 -1.23159
lowerneck 4.53055 -10.7268 -10.1258
upperneck 3.37902 -15.2673 13.9942
head 2.12676 -7.71898 5.52415
rclavicle 8.84592e-015 3.18055e-015
rhumerus -21.1076 -3.37831 -77.8884
rradius 102.543
rwrist 91.6964
rhand -30.5731 -31.9068
rfingers 7.12502
rthumb -3.8709 -421.851
lclavicle 8.84592e-015 3.18055e-015
lhumerus -24.0402 0.663676 90.6823
lradius 113.199
lwrist -22.2613
lhand -34.9976 -31.2582
lfingers 7.12502
lthumb -8.14241 -1.43508
rfemur -3.09603 19.9765 26.7282
rtibia 6.46239
rfoot -16.2247 -22.7549
rtoes 0.737235
lfemur 2.98093 -41.3893 -8.0175
ltibia -3.2056
lfoot -16.9373 49.1277
ltoes 4.13146
656
root -0.373192 17.4789 8.81146 8.02998 6.28158 -9.18475
lowerback -1.37716 0.800387 5.5146
upperback -10.4348 1.50857 1.82915
thorax -10.2535 0.366999 -1.23079
lowerneck 5.3535 -10.8524 -10.4105
upperneck 3.60012 -15.5391 14.0377
head 2.11689 -7.88662 5.61
rclavicle 6.26172e-015 2.14687e-014
rhumerus -17.1488 -2.71333 -77.4017
rradius 106.948
rwrist 87.5736
rhand -28.6883 -27.2586
rfingers 7.12502
rthumb -2.05066 -417.228
lclavicle 6.26172e-015 2.14687e-014
lhumerus -20.4674 -1.343 90.4559
lradius 116.674
lwrist -25.4851
lhand -38.8824 -36.8934
lfingers 7.12502
lthumb -11.8903 -7.25105
rfemur -2.95665 20.0651 26.8365
rtibia 6.33869
rfoot -16.2059 -22.9264
rtoes 0.803485
lfemur 3.07911 -41.5704 -8.00175
ltibia -3.26274
lfoot -16.9817 49.2055
ltoes 4.07397
657
root -0.371404 17.4797 8.8154 7.99911 6.33224 -9.2651
lowerback -1.27883 0.713384 5.56927
upperback -10.4832 1.4081 1.88171
thorax -10.3759 0.312045 -1.19854
lowerneck 5.94416 -11.0602 -10.6984
upperneck 3.84297 -15.9092 14.0266
head 2.16113 -8.09429 5.65841
rclavicle 5.66536e-015 4.69132e-014
rhumerus -13.3458 -0.884274 -77.1118
rradius 111.739
rwrist 79.917
rhand -26.0363 -23.5031
rfingers 7.12502
rthumb 0.51067 -413.482
lclavicle 5.66536e-015 4.69132e-014
lhumerus -16.9431 -3.11622 90.0779
lradius 119.976
lwrist -28.4957
lhand -39.4227 -39.4002
lfingers 7.12502
lthumb -12.4112 -9.78864
rfemur -2.89159 20.1131 26.9661
rtibia 6.30156
rfoot -16.1476 -23.0438
rtoes 0.826142
lfemur 3.20224 -41.7737 -7.9696
ltibia -3.34627
lfoot -17.089 49.3524
ltoes 4.141
